<svg width="27" height="30" viewBox="0 0 27 30" fill="none" xmlns="http://www.w3.org/2000/svg">
<rect x="0.420607" y="9.67097" width="26.0701" height="15.1375" fill="white" stroke="black" stroke-width="0.84097"/>
<path d="M13.4291 25.229V28.5929H6.72766H20.1832" stroke="black" stroke-width="0.84097"/>
<g clip-path="url(#clip0_33_1199)">
<path d="M18.6417 10.512C18.5484 10.7234 18.5206 10.9579 18.5618 11.1852C18.603 11.4125 18.7114 11.6223 18.873 11.7875L18.915 11.8295C19.0453 11.9597 19.1487 12.1143 19.2193 12.2844C19.2898 12.4546 19.3261 12.637 19.3261 12.8212C19.3261 13.0054 19.2898 13.1877 19.2193 13.3579C19.1487 13.5281 19.0453 13.6826 18.915 13.8128C18.7848 13.9431 18.6303 14.0465 18.4601 14.117C18.29 14.1876 18.1076 14.2239 17.9234 14.2239C17.7392 14.2239 17.5568 14.1876 17.3866 14.117C17.2165 14.0465 17.0619 13.9431 16.9317 13.8128L16.8897 13.7708C16.7245 13.6092 16.5147 13.5008 16.2874 13.4596C16.0601 13.4184 15.8256 13.4462 15.6142 13.5395C15.4069 13.6283 15.2302 13.7758 15.1056 13.9639C14.9811 14.1519 14.9143 14.3722 14.9134 14.5977V14.7169C14.9134 15.0886 14.7657 15.4451 14.5029 15.7079C14.24 15.9708 13.8835 16.1185 13.5118 16.1185C13.1401 16.1185 12.7835 15.9708 12.5207 15.7079C12.2578 15.4451 12.1102 15.0886 12.1102 14.7169V14.6538C12.1047 14.4218 12.0297 14.1968 11.8947 14.0081C11.7597 13.8194 11.5711 13.6757 11.3533 13.5956C11.1419 13.5023 10.9074 13.4744 10.6801 13.5157C10.4528 13.5569 10.243 13.6653 10.0778 13.8268L10.0358 13.8689C9.9056 13.9992 9.75102 14.1026 9.58087 14.1731C9.41071 14.2436 9.22832 14.28 9.04413 14.28C8.85994 14.28 8.67755 14.2436 8.50739 14.1731C8.33724 14.1026 8.18266 13.9992 8.05249 13.8689C7.92217 13.7387 7.81879 13.5841 7.74825 13.414C7.67772 13.2438 7.64141 13.0614 7.64141 12.8772C7.64141 12.693 7.67772 12.5106 7.74825 12.3405C7.81879 12.1703 7.92217 12.0158 8.05249 11.8856L8.09453 11.8435C8.2561 11.6784 8.36448 11.4686 8.4057 11.2413C8.44692 11.0139 8.41909 10.7794 8.3258 10.5681C8.23696 10.3608 8.08946 10.184 7.90144 10.0595C7.71342 9.93498 7.49309 9.86816 7.26758 9.86726H7.14844C6.77671 9.86726 6.4202 9.71959 6.15735 9.45673C5.8945 9.19388 5.74683 8.83737 5.74683 8.46564C5.74683 8.09391 5.8945 7.7374 6.15735 7.47455C6.4202 7.21169 6.77671 7.06402 7.14844 7.06402H7.21152C7.44348 7.0586 7.66845 6.98351 7.85717 6.84853C8.04589 6.71355 8.18965 6.52492 8.26974 6.30715C8.36302 6.09578 8.39085 5.8613 8.34963 5.63396C8.30841 5.40662 8.20003 5.19685 8.03847 5.03168L7.99642 4.98963C7.8661 4.85946 7.76272 4.70488 7.69219 4.53472C7.62165 4.36457 7.58535 4.18218 7.58535 3.99799C7.58535 3.81379 7.62165 3.63141 7.69219 3.46125C7.76272 3.2911 7.8661 3.13652 7.99642 3.00634C8.12659 2.87603 8.28118 2.77264 8.45133 2.70211C8.62148 2.63157 8.80387 2.59527 8.98807 2.59527C9.17226 2.59527 9.35465 2.63157 9.5248 2.70211C9.69495 2.77264 9.84954 2.87603 9.97971 3.00634L10.0218 3.04839C10.1869 3.20995 10.3967 3.31833 10.624 3.35955C10.8514 3.40077 11.0859 3.37295 11.2972 3.27966H11.3533C11.5606 3.19082 11.7373 3.04331 11.8619 2.85529C11.9864 2.66727 12.0532 2.44695 12.0541 2.22144V2.1023C12.0541 1.73057 12.2018 1.37406 12.4646 1.11121C12.7275 0.848354 13.084 0.700684 13.4557 0.700684C13.8275 0.700684 14.184 0.848354 14.4468 1.11121C14.7097 1.37406 14.8573 1.73057 14.8573 2.1023V2.16537C14.8582 2.39088 14.9251 2.61121 15.0496 2.79923C15.1741 2.98725 15.3509 3.13476 15.5581 3.22359C15.7695 3.31688 16.004 3.34471 16.2313 3.30349C16.4587 3.26227 16.6684 3.15389 16.8336 2.99233L16.8757 2.95028C17.0058 2.81996 17.1604 2.71658 17.3306 2.64604C17.5007 2.57551 17.6831 2.5392 17.8673 2.5392C18.0515 2.5392 18.2339 2.57551 18.404 2.64604C18.5742 2.71658 18.7288 2.81996 18.859 2.95028C18.9893 3.08045 19.0927 3.23503 19.1632 3.40519C19.2337 3.57534 19.27 3.75773 19.27 3.94192C19.27 4.12612 19.2337 4.3085 19.1632 4.47866C19.0927 4.64881 18.9893 4.80339 18.859 4.93357L18.8169 4.97562C18.6553 5.14078 18.547 5.35056 18.5057 5.5779C18.4645 5.80524 18.4923 6.03971 18.5856 6.25109V6.30715C18.6745 6.51443 18.822 6.69121 19.01 6.81572C19.198 6.94024 19.4183 7.00706 19.6439 7.00796H19.763C20.1347 7.00796 20.4912 7.15563 20.7541 7.41848C21.0169 7.68134 21.1646 8.03784 21.1646 8.40958C21.1646 8.78131 21.0169 9.13782 20.7541 9.40067C20.4912 9.66352 20.1347 9.81119 19.763 9.81119H19.6999C19.4744 9.81209 19.2541 9.87891 19.0661 10.0034C18.878 10.1279 18.7305 10.3047 18.6417 10.512V10.512Z" fill="white" stroke="black" stroke-width="0.84097" stroke-linecap="round" stroke-linejoin="round"/>
<path d="M13.4556 10.511C14.6167 10.511 15.558 9.56972 15.558 8.40858C15.558 7.24744 14.6167 6.30615 13.4556 6.30615C12.2944 6.30615 11.3531 7.24744 11.3531 8.40858C11.3531 9.56972 12.2944 10.511 13.4556 10.511Z" stroke="black" stroke-width="0.84097" stroke-linecap="round" stroke-linejoin="round"/>
<path d="M18.6417 10.512C18.5484 10.7234 18.5206 10.9579 18.5618 11.1852C18.603 11.4125 18.7114 11.6223 18.873 11.7875L18.915 11.8295C19.0453 11.9597 19.1487 12.1143 19.2193 12.2844C19.2898 12.4546 19.3261 12.637 19.3261 12.8212C19.3261 13.0054 19.2898 13.1877 19.2193 13.3579C19.1487 13.5281 19.0453 13.6826 18.915 13.8128C18.7848 13.9431 18.6303 14.0465 18.4601 14.117C18.29 14.1876 18.1076 14.2239 17.9234 14.2239C17.7392 14.2239 17.5568 14.1876 17.3866 14.117C17.2165 14.0465 17.0619 13.9431 16.9317 13.8128L16.8897 13.7708C16.7245 13.6092 16.5147 13.5008 16.2874 13.4596C16.0601 13.4184 15.8256 13.4462 15.6142 13.5395C15.4069 13.6283 15.2302 13.7758 15.1056 13.9639C14.9811 14.1519 14.9143 14.3722 14.9134 14.5977V14.7169C14.9134 15.0886 14.7657 15.4451 14.5029 15.7079C14.24 15.9708 13.8835 16.1185 13.5118 16.1185C13.1401 16.1185 12.7835 15.9708 12.5207 15.7079C12.2578 15.4451 12.1102 15.0886 12.1102 14.7169V14.6538C12.1047 14.4218 12.0297 14.1968 11.8947 14.0081C11.7597 13.8194 11.5711 13.6757 11.3533 13.5956C11.1419 13.5023 10.9074 13.4744 10.6801 13.5157C10.4528 13.5569 10.243 13.6653 10.0778 13.8268L10.0358 13.8689C9.9056 13.9992 9.75102 14.1026 9.58087 14.1731C9.41071 14.2436 9.22832 14.28 9.04413 14.28C8.85994 14.28 8.67755 14.2436 8.50739 14.1731C8.33724 14.1026 8.18266 13.9992 8.05249 13.8689C7.92217 13.7387 7.81879 13.5841 7.74825 13.414C7.67772 13.2438 7.64141 13.0614 7.64141 12.8772C7.64141 12.693 7.67772 12.5106 7.74825 12.3405C7.81879 12.1703 7.92217 12.0158 8.05249 11.8856L8.09453 11.8435C8.2561 11.6784 8.36448 11.4686 8.4057 11.2413C8.44692 11.0139 8.41909 10.7794 8.3258 10.5681C8.23696 10.3608 8.08946 10.184 7.90144 10.0595C7.71342 9.93498 7.49309 9.86816 7.26758 9.86726H7.14844C6.77671 9.86726 6.4202 9.71959 6.15735 9.45673C5.8945 9.19388 5.74683 8.83737 5.74683 8.46564C5.74683 8.09391 5.8945 7.7374 6.15735 7.47455C6.4202 7.21169 6.77671 7.06402 7.14844 7.06402H7.21152C7.44348 7.0586 7.66845 6.98351 7.85717 6.84853C8.04589 6.71355 8.18965 6.52492 8.26974 6.30715C8.36302 6.09578 8.39085 5.8613 8.34963 5.63396C8.30841 5.40662 8.20003 5.19685 8.03847 5.03168L7.99642 4.98963C7.8661 4.85946 7.76272 4.70488 7.69219 4.53472C7.62165 4.36457 7.58535 4.18218 7.58535 3.99799C7.58535 3.81379 7.62165 3.63141 7.69219 3.46125C7.76272 3.2911 7.8661 3.13652 7.99642 3.00634C8.12659 2.87603 8.28118 2.77264 8.45133 2.70211C8.62148 2.63157 8.80387 2.59527 8.98807 2.59527C9.17226 2.59527 9.35465 2.63157 9.5248 2.70211C9.69495 2.77264 9.84954 2.87603 9.97971 3.00634L10.0218 3.04839C10.1869 3.20995 10.3967 3.31833 10.624 3.35955C10.8514 3.40077 11.0859 3.37295 11.2972 3.27966H11.3533C11.5606 3.19082 11.7373 3.04331 11.8619 2.85529C11.9864 2.66727 12.0532 2.44695 12.0541 2.22144V2.1023C12.0541 1.73057 12.2018 1.37406 12.4646 1.11121C12.7275 0.848354 13.084 0.700684 13.4557 0.700684C13.8275 0.700684 14.184 0.848354 14.4468 1.11121C14.7097 1.37406 14.8573 1.73057 14.8573 2.1023V2.16537C14.8582 2.39088 14.9251 2.61121 15.0496 2.79923C15.1741 2.98725 15.3509 3.13476 15.5581 3.22359C15.7695 3.31688 16.004 3.34471 16.2313 3.30349C16.4587 3.26227 16.6684 3.15389 16.8336 2.99233L16.8757 2.95028C17.0058 2.81996 17.1604 2.71658 17.3306 2.64604C17.5007 2.57551 17.6831 2.5392 17.8673 2.5392C18.0515 2.5392 18.2339 2.57551 18.404 2.64604C18.5742 2.71658 18.7288 2.81996 18.859 2.95028C18.9893 3.08045 19.0927 3.23503 19.1632 3.40519C19.2337 3.57534 19.27 3.75773 19.27 3.94192C19.27 4.12612 19.2337 4.3085 19.1632 4.47866C19.0927 4.64881 18.9893 4.80339 18.859 4.93357L18.8169 4.97562C18.6553 5.14078 18.547 5.35056 18.5057 5.5779C18.4645 5.80524 18.4923 6.03971 18.5856 6.25109V6.30715C18.6745 6.51443 18.822 6.69121 19.01 6.81572C19.198 6.94024 19.4183 7.00706 19.6439 7.00796H19.763C20.1347 7.00796 20.4912 7.15563 20.7541 7.41848C21.0169 7.68134 21.1646 8.03784 21.1646 8.40958C21.1646 8.78131 21.0169 9.13782 20.7541 9.40067C20.4912 9.66352 20.1347 9.81119 19.763 9.81119H19.6999C19.4744 9.81209 19.2541 9.87891 19.0661 10.0034C18.878 10.1279 18.7305 10.3047 18.6417 10.512V10.512Z" stroke="black" stroke-width="0.84097" stroke-linecap="round" stroke-linejoin="round"/>
</g>
<defs>
<clipPath id="clip0_33_1199">
<rect width="16.8194" height="16.8194" fill="white" transform="translate(5.0459 -0.000488281)"/>
</clipPath>
</defs>
</svg>
