<svg width="25" height="25" viewBox="0 0 24 24" fill="none" xmlns="http://www.w3.org/2000/svg">
<path d="M9.50002 6.04544C7.59137 6.04544 6.04549 7.59137 6.04549 9.49998C6.04549 11.4086 7.59137 12.9546 9.50002 12.9546C11.4087 12.9546 12.9546 11.4086 12.9546 9.50002C12.9546 7.59141 11.4086 6.04544 9.50002 6.04544ZM17.2209 8.63636C16.8236 5.03499 13.965 2.17636 10.3636 1.77911V0H8.63636V1.77911C5.03499 2.17636 2.17636 5.03499 1.77911 8.63636H0V10.3636H1.77911C2.17636 13.965 5.03503 16.8236 8.6364 17.2209V19H10.3636V17.2209C13.965 16.8236 16.8236 13.965 17.2209 10.3636H19V8.63636H17.2209ZM9.50002 15.5455C6.16208 15.5455 3.45457 12.838 3.45457 9.50002C3.45457 6.16208 6.16208 3.45457 9.50002 3.45457C12.838 3.45457 15.5455 6.16204 15.5455 9.50002C15.5455 12.838 12.838 15.5455 9.50002 15.5455Z" fill="#121212"/>
</svg>
