<svg width="27" height="34" viewBox="0 0 27 34" fill="none" xmlns="http://www.w3.org/2000/svg">
<path d="M20.6039 9.67V33.2172H0.420607V9.67H20.6039Z" fill="white" stroke="black" stroke-width="0.84097"/>
<path d="M5.84077 20.8116V30.9355H2.62068V20.8116H5.84077Z" fill="white" stroke="black" stroke-width="0.84097"/>
<path d="M12.2028 16.7506V30.9355H8.98274V16.7506H12.2028Z" fill="white" stroke="black" stroke-width="0.84097"/>
<path d="M18.7001 18.2398V30.9357H15.4801V18.2398H18.7001Z" fill="white" stroke="black" stroke-width="0.84097"/>
<mask id="path-5-inside-1_33_1191" fill="white">
<path fill-rule="evenodd" clip-rule="evenodd" d="M20.6418 6.5993C23.8244 9.78183 23.8244 14.9417 20.6418 18.1242C20.6353 18.1308 20.6287 18.1373 20.6221 18.1439L23.4051 20.9268C23.5972 21.1189 23.5972 21.4302 23.4051 21.6223C23.213 21.8144 22.9017 21.8144 22.7096 21.6223L19.8828 18.7954C16.6855 21.2884 12.0572 21.0646 9.11688 18.1243C5.93435 14.9417 5.93435 9.78183 9.11688 6.5993C12.2994 3.41677 17.4593 3.41677 20.6418 6.5993Z"/>
</mask>
<path fill-rule="evenodd" clip-rule="evenodd" d="M20.6418 6.5993C23.8244 9.78183 23.8244 14.9417 20.6418 18.1242C20.6353 18.1308 20.6287 18.1373 20.6221 18.1439L23.4051 20.9268C23.5972 21.1189 23.5972 21.4302 23.4051 21.6223C23.213 21.8144 22.9017 21.8144 22.7096 21.6223L19.8828 18.7954C16.6855 21.2884 12.0572 21.0646 9.11688 18.1243C5.93435 14.9417 5.93435 9.78183 9.11688 6.5993C12.2994 3.41677 17.4593 3.41677 20.6418 6.5993Z" fill="white"/>
<path d="M20.6418 6.5993L21.2365 6.00464L21.2365 6.00464L20.6418 6.5993ZM20.6221 18.1439L20.0295 17.5472L19.4308 18.1419L20.0275 18.7385L20.6221 18.1439ZM23.4051 20.9268L22.8104 21.5215L22.8105 21.5215L23.4051 20.9268ZM22.7096 21.6223L23.3043 21.0277L23.3043 21.0276L22.7096 21.6223ZM19.8828 18.7954L20.4774 18.2008L19.9518 17.6752L19.3657 18.1322L19.8828 18.7954ZM9.11688 18.1243L8.52222 18.7189L8.52222 18.7189L9.11688 18.1243ZM21.2365 18.7189C24.7474 15.208 24.7474 9.51559 21.2365 6.00464L20.0472 7.19395C22.9013 10.0481 22.9013 14.6755 20.0472 17.5296L21.2365 18.7189ZM21.2148 18.7405C21.2221 18.7333 21.2293 18.7261 21.2365 18.7189L20.0472 17.5296C20.0413 17.5355 20.0354 17.5414 20.0295 17.5472L21.2148 18.7405ZM20.0275 18.7385L22.8104 21.5215L23.9997 20.3321L21.2168 17.5492L20.0275 18.7385ZM22.8105 21.5215C22.6741 21.3851 22.6741 21.164 22.8104 21.0276L23.9997 22.217C24.5202 21.6965 24.5202 20.8526 23.9997 20.3321L22.8105 21.5215ZM22.8104 21.0276C22.9468 20.8913 23.1679 20.8912 23.3043 21.0277L22.1149 22.2169C22.6354 22.7375 23.4793 22.7374 23.9997 22.217L22.8104 21.0276ZM23.3043 21.0276L20.4774 18.2008L19.2881 19.3901L22.115 22.217L23.3043 21.0276ZM8.52222 18.7189C11.7665 21.9632 16.872 22.2093 20.3999 19.4586L19.3657 18.1322C16.499 20.3674 12.348 20.1661 9.71153 17.5296L8.52222 18.7189ZM8.52222 6.00464C5.01127 9.51559 5.01127 15.208 8.52222 18.7189L9.71153 17.5296C6.85742 14.6755 6.85742 10.0481 9.71153 7.19395L8.52222 6.00464ZM21.2365 6.00464C17.7255 2.4937 12.0332 2.49369 8.52222 6.00464L9.71153 7.19395C12.5656 4.33985 17.1931 4.33985 20.0472 7.19395L21.2365 6.00464Z" fill="black" mask="url(#path-5-inside-1_33_1191)"/>
</svg>
