<svg width="31" height="31" viewBox="0 0 31 31" fill="none" xmlns="http://www.w3.org/2000/svg">
<path d="M18.6295 27.8871C18.0593 27.9632 17.4938 28.0145 16.9276 28.0145C16.1151 28.0145 15.2963 27.9374 14.4814 27.7813C13.2523 27.5446 12.5013 26.2951 12.7846 25.0265L12.7846 25.0262C12.8895 24.5554 13.1743 22.853 12.1269 21.3814L12.1269 21.3813C11.1758 20.0455 9.42301 19.2806 7.04985 19.01L7.0496 19.0099L6.65184 18.9648L6.65268 7.28495C8.83222 4.902 12.6566 2.36429 16.9783 2.2085L16.979 2.20847C17.5344 2.18745 18.0849 2.22132 18.6392 2.28219L18.6392 2.28219C24.1283 2.88449 29.7967 8.02954 29.8542 15.0363M18.6295 27.8871L18.6851 28.3039L18.6295 27.8871C18.6295 27.8871 18.6295 27.8871 18.6295 27.8871ZM18.6295 27.8871C24.9961 27.0375 29.9065 21.6227 29.8542 15.0363M29.8542 15.0363L30.2746 15.0328L29.8542 15.0362C29.8542 15.0362 29.8542 15.0362 29.8542 15.0363ZM16.9631 1.78855L16.9631 1.78829L16.9631 1.78855Z" fill="white" stroke="black" stroke-width="0.84097"/>
<path d="M23.5133 11.7073L23.4765 11.744C22.6005 12.5797 21.2058 12.5678 20.3444 11.7081C19.4718 10.8338 19.472 9.41184 20.3436 8.53847C21.219 7.66479 22.64 7.66523 23.5133 8.53848C24.3867 9.41195 24.3867 10.8339 23.5133 11.7073Z" fill="white" stroke="black" stroke-width="0.84097"/>
<path d="M14.4943 6.12084L14.4945 6.1208C15.6842 5.80224 16.9181 6.51164 17.2381 7.70482L17.2381 7.70499C17.5588 8.89911 16.8513 10.1278 15.6542 10.4482L15.6541 10.4483C14.4542 10.7698 13.23 10.0584 12.9106 8.86369L12.5044 8.9723L12.9104 8.86297C12.5926 7.68244 13.2864 6.44377 14.4943 6.12084Z" fill="white" stroke="black" stroke-width="0.84097"/>
<path d="M7.89402 12.7229L7.89413 12.7225C8.21238 11.5321 9.43553 10.8161 10.6365 11.1387L10.637 11.1388C11.8341 11.4588 12.5431 12.6853 12.2217 13.882L12.2216 13.8824C11.9004 15.0825 10.6697 15.7854 9.47819 15.4662C8.28441 15.1461 7.5741 13.9145 7.89402 12.7229Z" fill="white" stroke="black" stroke-width="0.84097"/>
<path d="M21.6016 16.3953L21.6017 16.3949C21.9227 15.1955 23.1538 14.4914 24.345 14.811L24.3451 14.811C25.5388 15.1312 26.2492 16.3627 25.9292 17.5543L25.9291 17.5548C25.6092 18.7515 24.3796 19.4597 23.186 19.1386L23.0768 19.5447L23.1855 19.1385C21.9915 18.8189 21.2795 17.594 21.6016 16.3953Z" fill="white" stroke="black" stroke-width="0.84097"/>
<mask id="path-6-inside-1_33_1164" fill="white">
<path fill-rule="evenodd" clip-rule="evenodd" d="M2.72009 15.1369C2.72009 8.25866 3.18178 -0.000488281 5.38096 -0.000488281C7.58013 -0.000488281 8.04182 8.2586 8.04182 15.1369C8.04182 15.3602 8.03997 15.5656 8.03811 15.7714C8.03735 15.8551 8.0366 15.9388 8.03597 16.0238L8.03398 16.0251H8.03649C8.01168 19.4861 7.85267 21.6014 7.79012 22.4336C7.77871 22.5854 7.7705 22.6945 7.76691 22.7613H5.38147H2.99604C2.99452 22.7328 2.98993 22.6704 2.98298 22.576C2.93212 21.8851 2.75476 19.4758 2.72688 16.0251H2.72902L2.72636 16.0238C2.72569 15.9405 2.7249 15.8581 2.7241 15.7756C2.7221 15.567 2.72009 15.3585 2.72009 15.1369Z"/>
</mask>
<path fill-rule="evenodd" clip-rule="evenodd" d="M2.72009 15.1369C2.72009 8.25866 3.18178 -0.000488281 5.38096 -0.000488281C7.58013 -0.000488281 8.04182 8.2586 8.04182 15.1369C8.04182 15.3602 8.03997 15.5656 8.03811 15.7714C8.03735 15.8551 8.0366 15.9388 8.03597 16.0238L8.03398 16.0251H8.03649C8.01168 19.4861 7.85267 21.6014 7.79012 22.4336C7.77871 22.5854 7.7705 22.6945 7.76691 22.7613H5.38147H2.99604C2.99452 22.7328 2.98993 22.6704 2.98298 22.576C2.93212 21.8851 2.75476 19.4758 2.72688 16.0251H2.72902L2.72636 16.0238C2.72569 15.9405 2.7249 15.8581 2.7241 15.7756C2.7221 15.567 2.72009 15.3585 2.72009 15.1369Z" fill="white"/>
<path d="M8.03811 15.7714L8.87904 15.779L8.87904 15.779L8.03811 15.7714ZM8.03597 16.0238L8.4864 16.734L8.8735 16.4885L8.87691 16.0301L8.03597 16.0238ZM8.03398 16.0251L7.58355 15.3149L5.13798 16.8661H8.03398V16.0251ZM8.03649 16.0251L8.87744 16.0311L8.88351 15.1841H8.03649V16.0251ZM7.79012 22.4336L8.62872 22.4966L8.62872 22.4966L7.79012 22.4336ZM7.76691 22.7613V23.6022H8.56386L8.60667 22.8064L7.76691 22.7613ZM2.99604 22.7613L2.15626 22.8061L2.19875 23.6022H2.99604V22.7613ZM2.98298 22.576L3.82168 22.5143L3.82168 22.5143L2.98298 22.576ZM2.72688 16.0251V15.1841H1.87908L1.88593 16.0319L2.72688 16.0251ZM2.72902 16.0251V16.8661L3.08809 15.2646L2.72902 16.0251ZM2.72636 16.0238L1.88542 16.0306L1.88966 16.5588L2.36729 16.7843L2.72636 16.0238ZM2.7241 15.7756L1.88317 15.7837L1.88317 15.7837L2.7241 15.7756ZM5.38096 -0.841458C4.81095 -0.841458 4.35452 -0.564305 4.02013 -0.205667C3.69722 0.140663 3.45177 0.59698 3.25655 1.08527C2.86475 2.06522 2.5901 3.39518 2.39226 4.87761C1.99431 7.85934 1.87912 11.6891 1.87912 15.1369H3.56106C3.56106 11.7065 3.67672 7.96751 4.05941 5.10011C4.25188 3.65798 4.505 2.49327 4.81829 1.70968C4.97561 1.3162 5.12703 1.07354 5.2503 0.941329C5.30837 0.879049 5.34802 0.854508 5.36513 0.845942C5.3783 0.839351 5.3806 0.840482 5.38096 0.840482V-0.841458ZM8.88279 15.1369C8.88279 11.689 8.76761 7.85931 8.36966 4.87759C8.17181 3.39517 7.89716 2.06521 7.50536 1.08526C7.31014 0.596972 7.06469 0.140657 6.74178 -0.205671C6.40739 -0.564308 5.95096 -0.841458 5.38096 -0.841458V0.840482C5.38132 0.840482 5.38362 0.839352 5.39678 0.845943C5.41389 0.854508 5.45354 0.879049 5.51161 0.941328C5.63488 1.07354 5.78631 1.3162 5.94362 1.70967C6.25691 2.49325 6.51003 3.65796 6.7025 5.10009C7.08519 7.96748 7.20085 11.7065 7.20085 15.1369H8.88279ZM8.87904 15.779C8.8809 15.5736 8.88279 15.3646 8.88279 15.1369H7.20085C7.20085 15.3559 7.19903 15.5576 7.19717 15.7638L8.87904 15.779ZM8.87691 16.0301C8.87754 15.9458 8.87829 15.8628 8.87904 15.779L7.19717 15.7638C7.19642 15.8474 7.19566 15.9318 7.19502 16.0176L8.87691 16.0301ZM8.48442 16.7353L8.4864 16.734L7.58553 15.3137L7.58355 15.3149L8.48442 16.7353ZM8.03649 15.1841H8.03398V16.8661H8.03649V15.1841ZM8.62872 22.4966C8.69211 21.6533 8.85245 19.5177 8.87744 16.0311L7.19554 16.0191C7.17092 19.4545 7.01324 21.5494 6.95151 22.3706L8.62872 22.4966ZM8.60667 22.8064C8.60965 22.751 8.61692 22.6536 8.62872 22.4966L6.95151 22.3706C6.94049 22.5171 6.93136 22.6379 6.92716 22.7161L8.60667 22.8064ZM5.38147 23.6022H7.76691V21.9203H5.38147V23.6022ZM2.99604 23.6022H5.38147V21.9203H2.99604V23.6022ZM2.14428 22.6377C2.1517 22.7386 2.15533 22.7886 2.15626 22.8061L3.83581 22.7165C3.83371 22.677 3.82816 22.6023 3.82168 22.5143L2.14428 22.6377ZM1.88593 16.0319C1.91403 19.5085 2.09276 21.938 2.14428 22.6377L3.82168 22.5143C3.77147 21.8322 3.59549 19.4432 3.56782 16.0183L1.88593 16.0319ZM2.72902 15.1841H2.72688V16.8661H2.72902V15.1841ZM2.36729 16.7843L2.36995 16.7855L3.08809 15.2646L3.08543 15.2634L2.36729 16.7843ZM1.88317 15.7837C1.88397 15.8663 1.88475 15.9481 1.88542 16.0306L3.5673 16.0171C3.56663 15.933 3.56583 15.8499 3.56504 15.7675L1.88317 15.7837ZM1.87912 15.1369C1.87912 15.3631 1.88117 15.5755 1.88317 15.7837L3.56504 15.7675C3.56302 15.5584 3.56106 15.3538 3.56106 15.1369H1.87912Z" fill="black" mask="url(#path-6-inside-1_33_1164)"/>
<mask id="path-8-inside-2_33_1164" fill="white">
<path fill-rule="evenodd" clip-rule="evenodd" d="M5.38082 21.347C3.42415 21.347 1.83304 22.9381 1.83304 24.8948V26.6687C1.83304 27.6466 0.977897 28.5018 0 28.5018V30.2757H3.60695C4.23202 30.2757 4.82326 30.1476 5.38086 29.9488C7.44126 29.2142 8.92868 27.2043 8.92868 24.8948C8.92868 24.7627 8.92142 24.6322 8.90729 24.5038C8.90179 24.4538 8.89525 24.4042 8.88769 24.3548C8.62709 22.6535 7.15406 21.3467 5.38082 21.3467V21.347Z"/>
</mask>
<path fill-rule="evenodd" clip-rule="evenodd" d="M5.38082 21.347C3.42415 21.347 1.83304 22.9381 1.83304 24.8948V26.6687C1.83304 27.6466 0.977897 28.5018 0 28.5018V30.2757H3.60695C4.23202 30.2757 4.82326 30.1476 5.38086 29.9488C7.44126 29.2142 8.92868 27.2043 8.92868 24.8948C8.92868 24.7627 8.92142 24.6322 8.90729 24.5038C8.90179 24.4538 8.89525 24.4042 8.88769 24.3548C8.62709 22.6535 7.15406 21.3467 5.38082 21.3467V21.347Z" fill="white"/>
<path d="M5.38082 21.347L5.38083 22.188L6.22179 22.188V21.347H5.38082ZM0 28.5018V27.6608H-0.84097V28.5018H0ZM0 30.2757H-0.84097V31.1166H0V30.2757ZM5.38086 29.9488L5.66327 30.7409L5.66329 30.7409L5.38086 29.9488ZM8.90729 24.5038L8.07135 24.5957L8.07136 24.5958L8.90729 24.5038ZM8.88769 24.3548L8.05642 24.4822L8.05642 24.4822L8.88769 24.3548ZM5.38082 21.3467V20.5057H4.53985V21.3467H5.38082ZM5.38081 20.506C2.95969 20.506 0.99207 22.4737 0.99207 24.8948H2.67401C2.67401 23.4026 3.88862 22.188 5.38083 22.188L5.38081 20.506ZM0.99207 24.8948V26.6687H2.67401V24.8948H0.99207ZM0.99207 26.6687C0.99207 27.1822 0.513443 27.6608 0 27.6608V29.3427C1.44235 29.3427 2.67401 28.1111 2.67401 26.6687H0.99207ZM-0.84097 28.5018V30.2757H0.84097V28.5018H-0.84097ZM0 31.1166H3.60695V29.4347H0V31.1166ZM3.60695 31.1166C4.34848 31.1166 5.03627 30.9645 5.66327 30.7409L5.09845 29.1567C4.61025 29.3307 4.11555 29.4347 3.60695 29.4347V31.1166ZM5.66329 30.7409C8.05195 29.8892 9.76965 27.5669 9.76965 24.8948H8.08771C8.08771 26.8417 6.83056 28.5391 5.09843 29.1567L5.66329 30.7409ZM9.76965 24.8948C9.76965 24.7319 9.76069 24.5707 9.74321 24.4118L8.07136 24.5958C8.08214 24.6938 8.08771 24.7935 8.08771 24.8948H9.76965ZM9.74322 24.4119C9.73642 24.3501 9.72832 24.2886 9.71897 24.2275L8.05642 24.4822C8.06218 24.5198 8.06716 24.5576 8.07135 24.5957L9.74322 24.4119ZM9.71897 24.2275C9.39651 22.1223 7.57609 20.5057 5.38082 20.5057V22.1876C6.73203 22.1876 7.85766 23.1846 8.05642 24.4822L9.71897 24.2275ZM4.53985 21.3467V21.347H6.22179V21.3467H4.53985Z" fill="black" mask="url(#path-8-inside-2_33_1164)"/>
<path d="M20.9254 22.2341C20.9254 23.4714 19.9224 24.4745 18.685 24.4745C17.4477 24.4745 16.4447 23.4714 16.4447 22.2341C16.4447 20.9968 17.4477 19.9937 18.685 19.9937C19.9224 19.9937 20.9254 20.9968 20.9254 22.2341Z" fill="white" stroke="black" stroke-width="0.84097"/>
</svg>
