<svg width="31" height="31" viewBox="0 0 31 31" fill="none" xmlns="http://www.w3.org/2000/svg">
<g clip-path="url(#clip0_33_1158)">
<path d="M29.8542 8.34966V21.9296C29.8542 24.0603 28.1201 25.7943 25.9901 25.7943H4.28437C2.15436 25.7943 0.420241 24.0603 0.420241 21.9296V8.34966C0.420241 6.21898 2.15436 4.48494 4.28437 4.48494H25.9901C28.1201 4.48494 29.8542 6.21898 29.8542 8.34966Z" fill="white" stroke="black" stroke-width="0.84097"/>
<path d="M11.013 19.201L5.44238 16.7521C5.09253 16.6085 4.91761 16.3619 4.91761 16.012C4.91761 15.8416 4.96246 15.6981 5.05217 15.5814C5.14187 15.4648 5.27194 15.3706 5.44238 15.2989L11.013 12.8365C11.1385 12.7827 11.2507 12.7737 11.3494 12.8096C11.457 12.8365 11.5422 12.8903 11.605 12.9711C11.6678 13.0518 11.7037 13.146 11.7127 13.2536C11.7216 13.3613 11.6992 13.4644 11.6454 13.5631C11.6005 13.6528 11.5108 13.7246 11.3763 13.7784L5.42892 16.3619V15.6891L11.3763 18.2725C11.5108 18.3264 11.6005 18.4026 11.6454 18.5013C11.6992 18.591 11.7216 18.6897 11.7127 18.7973C11.7037 18.896 11.6678 18.9902 11.605 19.0799C11.5422 19.1606 11.457 19.2144 11.3494 19.2413C11.2507 19.2683 11.1385 19.2548 11.013 19.201ZM14.0554 20.3178C14.0105 20.4613 13.9388 20.5645 13.8401 20.6273C13.7414 20.6901 13.6338 20.7214 13.5172 20.7214C13.4005 20.7214 13.2929 20.6901 13.1942 20.6273C13.1045 20.5734 13.0417 20.4927 13.0059 20.3851C12.961 20.2774 12.961 20.1473 13.0059 19.9949L16.1679 10.1992C16.2128 10.0557 16.2845 9.95254 16.3832 9.88975C16.4819 9.81799 16.585 9.78659 16.6927 9.79556C16.8093 9.79556 16.9124 9.82696 17.0021 9.88975C17.1008 9.94357 17.1681 10.0243 17.204 10.132C17.2488 10.2306 17.2533 10.3562 17.2174 10.5087L14.0554 20.3178ZM19.2273 19.201C19.1018 19.2548 18.9852 19.2683 18.8775 19.2413C18.7788 19.2144 18.6981 19.1606 18.6353 19.0799C18.5725 18.9902 18.5366 18.896 18.5277 18.7973C18.5187 18.6897 18.5411 18.591 18.5949 18.5013C18.6488 18.4026 18.734 18.3264 18.8506 18.2725L24.8114 15.6891V16.3619L18.8506 13.7784C18.734 13.7246 18.6488 13.6528 18.5949 13.5631C18.5411 13.4644 18.5187 13.3613 18.5277 13.2536C18.5366 13.146 18.5725 13.0518 18.6353 12.9711C18.6981 12.8903 18.7788 12.8365 18.8775 12.8096C18.9852 12.7737 19.1018 12.7827 19.2273 12.8365L24.7979 15.2989C25.1478 15.4424 25.3227 15.6801 25.3227 16.012C25.3227 16.1825 25.2779 16.3305 25.1881 16.456C25.0984 16.5816 24.9684 16.6803 24.7979 16.7521L19.2273 19.201Z" fill="black"/>
</g>
<defs>
<clipPath id="clip0_33_1158">
<rect width="30.2749" height="30.2749" fill="white"/>
</clipPath>
</defs>
</svg>
