<svg width="31" height="31" viewBox="0 0 31 31" fill="none" xmlns="http://www.w3.org/2000/svg">
<path d="M21.9225 21.2989H26.0983C28.1724 21.2989 29.8536 22.9801 29.8536 25.0542V27.1421C29.8536 28.6394 28.6396 29.8535 27.1422 29.8535H18.1672V25.0542C18.1672 22.9801 19.8484 21.2989 21.9225 21.2989Z" fill="white" stroke="black" stroke-width="0.84097"/>
<path d="M12.1067 29.8535H3.1316C1.63428 29.8535 0.420241 28.6394 0.420241 27.1421V25.0542C0.420241 22.9801 2.10146 21.2989 4.17555 21.2989H8.35135C10.4254 21.2989 12.1067 22.9801 12.1067 25.0542V29.8535Z" fill="white" stroke="black" stroke-width="0.84097"/>
<path d="M22.0021 15.7602C22.9189 12.89 21.9511 9.71955 19.5271 7.85688C16.9382 5.86721 13.3346 5.86721 10.7457 7.85688C8.32174 9.71955 7.35386 12.89 8.27069 15.7602H2.60977C2.26567 15.7589 1.98692 15.4801 1.98555 15.136V12.0056C1.98692 11.6616 2.26567 11.3828 2.60977 11.3815H5.02569H5.35171L5.43292 11.0657C5.66601 10.1595 6.02836 9.29162 6.50872 8.48874L6.67705 8.20739L6.44524 7.97555L4.72818 6.25823L4.72776 6.25782C4.61143 6.14179 4.54598 5.98412 4.54598 5.81947C4.54598 5.65513 4.61139 5.49745 4.72776 5.38138L4.72815 5.38099L6.94654 3.1626L6.94693 3.16221C7.063 3.04584 7.22069 2.98042 7.38503 2.98042C7.54968 2.98042 7.70735 3.04588 7.82338 3.16221L7.82379 3.16262L9.5411 4.87968L9.77295 5.11149L10.0543 4.94317C10.8572 4.4628 11.725 4.10046 12.6313 3.86737L12.947 3.78616V3.46014V1.04422C12.9484 0.700119 13.2271 0.421371 13.5712 0.419997H16.7016C17.0457 0.421371 17.3244 0.700119 17.3258 1.04422V3.46014V3.78616L17.6415 3.86737C18.5477 4.10046 19.4156 4.4628 20.2185 4.94317L20.4998 5.11149L20.7317 4.87968L22.449 3.16262L22.4494 3.16221C22.5654 3.04588 22.7231 2.98042 22.8878 2.98042C23.0521 2.98042 23.2098 3.04584 23.3259 3.16221L23.3263 3.1626L25.5446 5.38099L25.545 5.38138C25.6614 5.49745 25.7268 5.65513 25.7268 5.81947C25.7268 5.98412 25.6614 6.14179 25.545 6.25782L25.5446 6.25823L23.8276 7.97555L23.5957 8.20739L23.7641 8.48874C24.2444 9.29162 24.6068 10.1595 24.8399 11.0657L24.9211 11.3815H25.2471H27.663C28.0071 11.3828 28.2859 11.6616 28.2872 12.0057C28.2872 12.0059 28.2872 12.006 28.2872 12.0062V15.1355C28.2872 15.1356 28.2872 15.1358 28.2872 15.136C28.2859 15.4801 28.0071 15.7589 27.663 15.7602H22.0021Z" fill="white" stroke="black" stroke-width="0.84097"/>
<path d="M17.3262 14.6148C17.3262 15.8238 16.3459 16.8041 15.1368 16.8041C13.9278 16.8041 12.9475 15.8238 12.9475 14.6148C12.9475 13.4057 13.9278 12.4254 15.1368 12.4254C16.3459 12.4254 17.3262 13.4057 17.3262 14.6148Z" fill="white" stroke="black" stroke-width="0.84097"/>
<path d="M26.1994 16.7022C26.1994 17.9112 25.2191 18.8915 24.01 18.8915C22.801 18.8915 21.8206 17.9112 21.8206 16.7022C21.8206 15.4931 22.801 14.5128 24.01 14.5128C25.2191 14.5128 26.1994 15.4931 26.1994 16.7022Z" fill="white" stroke="black" stroke-width="0.84097"/>
<path d="M8.45258 16.7022C8.45258 17.9112 7.47226 18.8915 6.26319 18.8915C5.05413 18.8915 4.07381 17.9112 4.07381 16.7022C4.07381 15.4931 5.05413 14.5128 6.26319 14.5128C7.47226 14.5128 8.45258 15.4931 8.45258 16.7022Z" fill="white" stroke="black" stroke-width="0.84097"/>
<path d="M13.0492 19.213H17.225C19.2991 19.213 20.9803 20.8942 20.9803 22.9683V28.188C20.9803 29.1088 20.2337 29.8554 19.3129 29.8554H10.9613C10.0405 29.8554 9.2939 29.1088 9.2939 28.188V22.9683C9.2939 20.8942 10.9751 19.213 13.0492 19.213Z" fill="white" stroke="black" stroke-width="0.84097"/>
</svg>
