<svg width="43" height="43" viewBox="0 0 43 43" fill="none" xmlns="http://www.w3.org/2000/svg">
<path d="M13.1318 34.038H13.1318C12.2931 34.038 11.6132 33.3581 11.6132 32.5194V32.5194L11.6132 23.2444L14.6504 23.2443L14.6504 32.5194V32.5194C14.6505 33.3581 13.9706 34.0381 13.1318 34.038Z" fill="white" stroke="black" stroke-width="0.84097"/>
<path d="M5.79595 21.8144V21.8144L5.79595 17.9362C5.79595 16.5838 6.90134 15.4868 8.28414 15.4868L8.28417 15.4868L14.9019 15.4868L16.5896 17.107L16.5896 22.7573L14.9044 24.3414L8.28408 24.3414C6.91407 24.3414 5.79587 23.199 5.79595 21.8144Z" fill="white" stroke="black" stroke-width="0.84097"/>
<path d="M28.9048 10.6415L30.1641 13.2244L30.1641 26.6658C30.1578 26.6826 30.1469 26.7081 30.1295 26.7438C30.089 26.8269 30.0271 26.9364 29.9465 27.0696C29.8231 27.2733 29.6699 27.5093 29.5082 27.7585C29.4581 27.8355 29.4073 27.9138 29.3563 27.9928C29.1451 28.3198 28.9303 28.6594 28.7817 28.9388C28.7702 28.9603 28.7589 28.982 28.7478 29.0036L26.9206 27.806C26.9201 27.8057 26.9195 27.8053 26.919 27.8049C23.4793 25.5058 19.1928 24.3604 15.4921 24.3419L15.4921 15.4867C19.3848 15.4691 23.3871 14.32 26.9201 11.9647L26.6987 11.6325L26.9201 11.9647L28.9048 10.6415ZM30.1698 26.6486C30.1698 26.6486 30.1696 26.6497 30.1689 26.6518C30.1694 26.6496 30.1698 26.6485 30.1698 26.6486Z" fill="white" stroke="black" stroke-width="0.84097"/>
<path d="M30.3405 30.0953L30.3682 30.1046C30.4989 30.1482 30.5485 30.1606 30.5843 30.1606C31.4185 30.1606 32.1029 29.4763 32.1029 28.642L32.1029 11.19C32.1029 10.3557 31.4185 9.67129 30.5842 9.67125C30.5434 9.67125 30.4968 9.67793 30.4285 9.694C30.3973 9.70133 30.366 9.7095 30.3284 9.71934C30.3237 9.72055 30.319 9.72179 30.3141 9.72306C30.2757 9.73308 30.2316 9.74448 30.1848 9.75516C29.8655 9.84869 29.5984 10.03 29.4058 10.2817L30.3405 30.0953ZM30.3405 30.0953L30.3117 30.09M30.3405 30.0953L30.3117 30.09M30.3117 30.09C29.8962 30.0131 29.5578 29.7869 29.3533 29.451L29.3439 29.4355M30.3117 30.09L29.3439 29.4355M29.3439 29.4355L29.3332 29.4209M29.3439 29.4355L29.3332 29.4209M29.3332 29.4209C29.1648 29.1914 29.0656 28.9277 29.0656 28.642L29.0656 11.1899L28.6451 11.1899M29.3332 29.4209L28.6451 11.1899M28.6451 11.1899L29.0656 11.1899C29.0656 10.8601 29.1932 10.5598 29.4057 10.2818L28.6451 11.1899Z" fill="white" stroke="black" stroke-width="0.84097"/>
<path d="M34.5431 19.8965H40.1664" stroke="black" stroke-width="0.84097" stroke-linecap="round" stroke-linejoin="round"/>
<path d="M34.5431 23.1113L39.4131 25.923" stroke="black" stroke-width="0.84097" stroke-linecap="round" stroke-linejoin="round"/>
<path d="M34.5431 16.6821L39.4131 13.8705" stroke="black" stroke-width="0.84097" stroke-linecap="round" stroke-linejoin="round"/>
</svg>
